# xmcd
#
# Track frame offsets: 
#        150
#        16455
#        44740
#        69257
#
# Disc length: 1245 seconds
#
# Revision: 0
# Processed by: cddbd v1.5.2PL0 Copyright (c) Steve Scherf et al.
# Submitted via: ExactAudioCopy v1.0b1
#
DISCID=3004db04
DTITLE=Carrozza - Flamenco A La Playa CDM
DYEAR=1998
DGENRE=Dance
TTITLE0=Flamenco A La Playa (Radio Version)
TTITLE1=Flamenco A La Playa (2 Hot 4 U Mix)
TTITLE2=Flamenco A La Playa (Lithium Club Mix)
TTITLE3=Flamenco A La Playa (Spanish Fly Watches The Sunset Mix)
EXTD=
EXTT0=
EXTT1=
EXTT2=
EXTT3=
PLAYORDER=
